<svg viewBox="0 0 500 300" xmlns="http://www.w3.org/2000/svg">
  <!-- Background -->
  <rect width="500" height="300" fill="#ffffff"/>
  
  <!-- Title -->
  <text x="250" y="30" text-anchor="middle" font-family="system-ui" font-size="18" fill="#1f2937" font-weight="700">Time Savings Compound Over Time</text>
  
  <!-- Axes -->
  <line x1="50" y1="250" x2="450" y2="250" stroke="#9ca3af" stroke-width="2"/>
  <line x1="50" y1="50" x2="50" y2="250" stroke="#9ca3af" stroke-width="2"/>
  
  <!-- Y-axis label -->
  <text x="20" y="150" text-anchor="middle" font-family="system-ui" font-size="12" fill="#6b7280" transform="rotate(-90 20 150)">Hours Saved</text>
  
  <!-- X-axis label -->
  <text x="250" y="280" text-anchor="middle" font-family="system-ui" font-size="12" fill="#6b7280">Months</text>
  
  <!-- Month labels -->
  <text x="100" y="268" text-anchor="middle" font-family="system-ui" font-size="11" fill="#6b7280">1</text>
  <text x="180" y="268" text-anchor="middle" font-family="system-ui" font-size="11" fill="#6b7280">3</text>
  <text x="260" y="268" text-anchor="middle" font-family="system-ui" font-size="11" fill="#6b7280">6</text>
  <text x="340" y="268" text-anchor="middle" font-family="system-ui" font-size="11" fill="#6b7280">9</text>
  <text x="420" y="268" text-anchor="middle" font-family="system-ui" font-size="11" fill="#6b7280">12</text>
  
  <!-- Compound growth curve -->
  <path d="M 50 240 Q 150 220, 200 180 T 350 100 T 450 60" 
        fill="none" 
        stroke="#8b5cf6" 
        stroke-width="4" 
        stroke-linecap="round"/>
  
  <!-- Area under curve -->
  <path d="M 50 240 Q 150 220, 200 180 T 350 100 T 450 60 L 450 250 L 50 250 Z" 
        fill="#8b5cf6" 
        fill-opacity="0.1"/>
  
  <!-- Data points -->
  <circle cx="100" cy="230" r="6" fill="#8b5cf6" stroke="#ffffff" stroke-width="2"/>
  <circle cx="180" cy="210" r="6" fill="#8b5cf6" stroke="#ffffff" stroke-width="2"/>
  <circle cx="260" cy="170" r="6" fill="#8b5cf6" stroke="#ffffff" stroke-width="2"/>
  <circle cx="340" cy="110" r="6" fill="#8b5cf6" stroke="#ffffff" stroke-width="2"/>
  <circle cx="420" cy="70" r="6" fill="#8b5cf6" stroke="#ffffff" stroke-width="2"/>
  
  <!-- Value labels -->
  <text x="100" y="220" text-anchor="middle" font-family="system-ui" font-size="10" fill="#7c3aed" font-weight="600">10h</text>
  <text x="180" y="200" text-anchor="middle" font-family="system-ui" font-size="10" fill="#7c3aed" font-weight="600">30h</text>
  <text x="260" y="160" text-anchor="middle" font-family="system-ui" font-size="10" fill="#7c3aed" font-weight="600">60h</text>
  <text x="340" y="100" text-anchor="middle" font-family="system-ui" font-size="10" fill="#7c3aed" font-weight="600">120h</text>
  <text x="420" y="60" text-anchor="middle" font-family="system-ui" font-size="10" fill="#7c3aed" font-weight="600">200h</text>
</svg>
