<svg viewBox="0 0 400 300" xmlns="http://www.w3.org/2000/svg">
  <!-- Background -->
  <rect width="400" height="300" fill="#f9fafb"/>
  
  <!-- Ground -->
  <line x1="50" y1="220" x2="350" y2="220" stroke="#9ca3af" stroke-width="3"/>
  
  <!-- Fulcrum (triangle) -->
  <path d="M 120 220 L 140 180 L 100 220 Z" fill="#6366f1" stroke="#4f46e5" stroke-width="2"/>
  
  <!-- Lever (plank) -->
  <rect x="90" y="170" width="260" height="15" fill="#8b5cf6" stroke="#7c3aed" stroke-width="2" rx="3"/>
  
  <!-- Small effort (person/force on left) -->
  <circle cx="95" cy="150" r="15" fill="#3b82f6" stroke="#2563eb" stroke-width="2"/>
  <line x1="95" y1="165" x2="95" y2="175" stroke="#2563eb" stroke-width="3"/>
  
  <!-- Large load (clock on right) -->
  <g transform="translate(320, 100)">
    <!-- Clock circle -->
    <circle cx="0" cy="0" r="35" fill="#fbbf24" stroke="#f59e0b" stroke-width="3"/>
    <!-- Clock hands -->
    <line x1="0" y1="0" x2="0" y2="-20" stroke="#78350f" stroke-width="3" stroke-linecap="round"/>
    <line x1="0" y1="0" x2="15" y2="0" stroke="#78350f" stroke-width="2" stroke-linecap="round"/>
    <circle cx="0" cy="0" r="3" fill="#78350f"/>
  </g>
  
  <!-- Labels -->
  <text x="95" y="250" text-anchor="middle" font-family="system-ui" font-size="14" fill="#374151" font-weight="600">Small Effort</text>
  <text x="320" y="250" text-anchor="middle" font-family="system-ui" font-size="14" fill="#374151" font-weight="600">Massive Time Saved</text>
  
  <!-- Arrow showing leverage -->
  <path d="M 95 195 L 95 205" stroke="#ef4444" stroke-width="2" marker-end="url(#arrowdown)"/>
  <path d="M 320 145 L 320 155" stroke="#22c55e" stroke-width="2" marker-end="url(#arrowup)"/>
  
  <defs>
    <marker id="arrowdown" markerWidth="10" markerHeight="10" refX="5" refY="5" orient="auto">
      <polygon points="5,8 2,2 8,2" fill="#ef4444"/>
    </marker>
    <marker id="arrowup" markerWidth="10" markerHeight="10" refX="5" refY="5" orient="auto">
      <polygon points="5,2 2,8 8,8" fill="#22c55e"/>
    </marker>
  </defs>
</svg>
