<svg viewBox="0 0 400 250" xmlns="http://www.w3.org/2000/svg">
  <!-- Background -->
  <rect width="400" height="250" fill="#f9fafb"/>
  
  <!-- Grid lines -->
  <line x1="40" y1="200" x2="360" y2="200" stroke="#e5e7eb" stroke-width="1"/>
  <line x1="40" y1="150" x2="360" y2="150" stroke="#e5e7eb" stroke-width="1"/>
  <line x1="40" y1="100" x2="360" y2="100" stroke="#e5e7eb" stroke-width="1"/>
  <line x1="40" y1="50" x2="360" y2="50" stroke="#e5e7eb" stroke-width="1"/>
  
  <!-- Axes -->
  <line x1="40" y1="30" x2="40" y2="210" stroke="#6b7280" stroke-width="2"/>
  <line x1="40" y1="210" x2="370" y2="210" stroke="#6b7280" stroke-width="2"/>
  
  <!-- Exponential curve -->
  <path d="M 40 200 L 80 190 L 120 175 L 160 150 L 200 115 L 240 75 L 280 45 L 320 30 L 360 25" 
        fill="none" 
        stroke="#10b981" 
        stroke-width="4" 
        stroke-linecap="round"/>
  
  <!-- Shaded area -->
  <path d="M 40 200 L 80 190 L 120 175 L 160 150 L 200 115 L 240 75 L 280 45 L 320 30 L 360 25 L 360 210 L 40 210 Z" 
        fill="#10b981" 
        fill-opacity="0.15"/>
  
  <!-- Labels -->
  <text x="200" y="235" text-anchor="middle" font-family="system-ui" font-size="12" fill="#374151" font-weight="600">Time →</text>
  <text x="15" y="120" text-anchor="middle" font-family="system-ui" font-size="12" fill="#374151" font-weight="600" transform="rotate(-90 15 120)">Value</text>
  
  <!-- Annotation -->
  <text x="280" y="60" font-family="system-ui" font-size="14" fill="#059669" font-weight="700">Compounding</text>
  <text x="280" y="78" font-family="system-ui" font-size="14" fill="#059669" font-weight="700">Gains</text>
</svg>
